<svg id="svg" version="1.1" xmlns="http://www.w3.org/2000/svg" xmlns:xlink="http://www.w3.org/1999/xlink" width="400" height="321.8487394957983" viewBox="0, 0, 400,321.8487394957983"><g id="svgg"><path id="path0" d="M95.764 248.509 C 95.726 249.171,90.411 254.622,71.034 273.871 C 46.487 298.257,44.789 300.059,46.058 300.391 C 46.410 300.483,46.699 300.759,46.699 301.004 C 46.699 301.249,46.916 301.449,47.182 301.449 C 47.448 301.449,47.665 301.591,47.665 301.765 C 47.665 301.939,48.000 302.165,48.408 302.268 C 48.817 302.370,49.417 302.808,49.742 303.240 C 50.066 303.672,50.565 304.030,50.850 304.036 C 51.509 304.049,52.496 304.788,52.496 305.269 C 52.496 305.471,52.843 305.636,53.267 305.636 C 53.691 305.636,54.121 305.853,54.223 306.119 C 54.325 306.385,54.741 306.602,55.147 306.602 C 55.559 306.602,56.153 306.958,56.490 307.407 C 56.823 307.850,57.365 308.213,57.694 308.213 C 58.024 308.213,58.293 308.346,58.293 308.509 C 58.293 308.672,58.728 308.901,59.259 309.018 C 59.791 309.134,60.225 309.363,60.225 309.526 C 60.225 309.689,60.588 309.823,61.031 309.823 C 61.532 309.823,61.836 310.005,61.836 310.306 C 61.836 310.607,62.140 310.789,62.641 310.789 C 63.084 310.789,63.446 310.934,63.446 311.111 C 63.446 311.288,63.808 311.433,64.251 311.433 C 64.752 311.433,65.056 311.616,65.056 311.916 C 65.056 312.210,65.356 312.399,65.822 312.399 C 66.243 312.399,66.768 312.617,66.989 312.882 C 67.209 313.148,67.662 313.366,67.994 313.366 C 68.327 313.366,68.599 313.510,68.599 313.688 C 68.599 313.865,69.179 314.010,69.887 314.010 C 70.818 314.010,71.176 314.144,71.176 314.493 C 71.176 314.793,71.480 314.976,71.981 314.976 C 72.424 314.976,72.786 315.121,72.786 315.298 C 72.786 315.475,73.366 315.620,74.074 315.620 C 75.004 315.620,75.362 315.754,75.362 316.103 C 75.362 316.407,75.669 316.586,76.190 316.586 C 76.646 316.586,77.236 316.804,77.502 317.069 C 77.767 317.335,78.482 317.552,79.089 317.552 C 79.696 317.552,80.193 317.697,80.193 317.874 C 80.193 318.052,80.757 318.196,81.447 318.196 C 82.264 318.196,82.765 318.365,82.886 318.680 C 83.017 319.020,83.549 319.163,84.692 319.163 C 85.583 319.163,86.312 319.308,86.312 319.485 C 86.312 319.664,87.175 319.807,88.255 319.807 C 89.684 319.807,90.246 319.934,90.383 320.290 C 90.512 320.627,91.037 320.773,92.117 320.773 C 93.070 320.773,93.718 320.928,93.800 321.176 C 94.042 321.904,100.669 322.003,150.966 322.032 L 200.322 322.061 200.322 286.957 L 200.322 251.852 154.624 251.852 C 114.300 251.852,108.904 251.795,108.740 251.369 C 108.604 251.013,108.042 250.886,106.612 250.886 C 105.532 250.886,104.670 250.743,104.670 250.564 C 104.670 250.386,103.873 250.242,102.899 250.242 C 101.539 250.242,101.127 250.129,101.127 249.758 C 101.127 249.461,100.825 249.275,100.341 249.275 C 99.909 249.275,99.465 249.130,99.356 248.953 C 99.246 248.776,98.658 248.631,98.049 248.631 C 97.278 248.631,96.940 248.484,96.940 248.148 C 96.940 247.255,95.817 247.600,95.764 248.509 " stroke="none" fill="#34ab55" fill-rule="evenodd"></path><path id="path1" d="M107.729 97.294 C 103.037 97.554,96.668 98.269,93.720 98.867 C 89.924 99.637,86.921 100.321,84.863 100.886 C 83.623 101.226,82.101 101.633,81.481 101.790 C 79.482 102.297,72.900 104.640,70.531 105.688 C 70.089 105.884,69.436 106.161,69.082 106.303 C 67.539 106.921,60.244 110.549,58.776 111.427 C 57.890 111.957,56.948 112.490,56.683 112.611 C 56.417 112.732,55.403 113.336,54.428 113.953 C 52.127 115.410,48.326 117.230,47.584 117.230 C 47.263 117.230,46.917 117.448,46.815 117.713 C 46.713 117.979,46.490 118.196,46.319 118.196 C 46.149 118.196,45.807 118.378,45.560 118.599 C 44.592 119.467,44.142 119.807,43.960 119.807 C 43.855 119.807,43.434 120.169,43.023 120.612 C 42.613 121.055,42.113 121.417,41.912 121.417 C 41.710 121.417,41.546 121.560,41.546 121.735 C 41.546 122.247,40.478 123.349,39.981 123.349 C 39.731 123.349,39.191 123.712,38.780 124.155 C 38.370 124.597,37.944 124.960,37.835 124.960 C 37.506 124.960,36.715 125.854,36.715 126.225 C 36.715 126.415,36.498 126.570,36.232 126.570 C 35.966 126.570,35.749 126.787,35.749 127.053 C 35.749 127.319,35.594 127.536,35.404 127.536 C 34.958 127.536,34.138 128.356,34.138 128.801 C 34.138 128.991,33.989 129.147,33.806 129.147 C 33.389 129.147,31.562 130.991,31.562 131.412 C 31.562 131.583,31.407 131.723,31.217 131.723 C 30.771 131.723,29.952 132.542,29.952 132.988 C 29.952 133.178,29.734 133.333,29.469 133.333 C 29.203 133.333,28.986 133.470,28.986 133.636 C 28.986 133.803,28.261 134.695,27.375 135.619 C 26.490 136.543,25.765 137.566,25.765 137.892 C 25.765 138.219,25.609 138.486,25.418 138.486 C 24.811 138.486,23.188 140.343,23.188 141.038 C 23.188 141.418,22.980 141.707,22.705 141.707 C 22.440 141.707,22.222 141.890,22.222 142.114 C 22.222 142.337,21.860 142.792,21.417 143.125 C 20.974 143.457,20.612 143.934,20.612 144.183 C 20.612 144.432,20.250 144.972,19.807 145.382 C 19.364 145.793,19.002 146.438,19.002 146.816 C 19.002 147.213,18.797 147.504,18.519 147.504 C 18.253 147.504,18.035 147.721,18.035 147.987 C 18.035 148.253,17.890 148.470,17.713 148.470 C 17.536 148.470,17.391 148.833,17.391 149.275 C 17.391 149.718,17.208 150.081,16.985 150.081 C 16.598 150.081,16.063 150.856,15.596 152.093 C 15.479 152.403,15.256 152.657,15.099 152.657 C 14.943 152.657,14.815 153.019,14.815 153.462 C 14.815 153.963,14.632 154.267,14.332 154.267 C 14.037 154.267,13.849 154.568,13.849 155.038 C 13.849 155.462,13.631 155.892,13.366 155.994 C 13.100 156.096,12.882 156.546,12.882 156.995 C 12.882 157.443,12.738 157.810,12.560 157.810 C 12.383 157.810,12.238 158.172,12.238 158.615 C 12.238 159.116,12.056 159.420,11.755 159.420 C 11.455 159.420,11.272 159.724,11.272 160.225 C 11.272 160.668,11.127 161.031,10.950 161.031 C 10.773 161.031,10.628 161.393,10.628 161.836 C 10.628 162.337,10.446 162.641,10.145 162.641 C 9.827 162.641,9.662 162.959,9.662 163.573 C 9.662 164.104,9.454 164.584,9.179 164.690 C 8.913 164.792,8.696 165.161,8.696 165.510 C 8.696 165.860,8.551 166.235,8.374 166.345 C 8.196 166.454,8.052 167.042,8.052 167.652 C 8.052 168.422,7.904 168.760,7.568 168.760 C 7.249 168.760,7.085 169.080,7.085 169.707 C 7.085 170.228,6.940 170.744,6.763 170.853 C 6.586 170.963,6.441 171.417,6.441 171.862 C 6.441 172.307,6.224 172.888,5.958 173.154 C 5.692 173.420,5.475 173.999,5.475 174.442 C 5.475 174.885,5.258 175.465,4.992 175.730 C 4.726 175.996,4.509 176.783,4.509 177.479 C 4.509 178.175,4.364 178.744,4.187 178.744 C 4.010 178.744,3.865 179.453,3.865 180.320 C 3.865 181.423,3.720 181.951,3.382 182.081 C 3.041 182.212,2.899 182.744,2.899 183.887 C 2.899 184.778,2.754 185.507,2.576 185.507 C 2.395 185.507,2.254 186.408,2.254 187.566 C 2.254 189.099,2.131 189.672,1.771 189.811 C 1.397 189.954,1.288 190.583,1.288 192.605 C 1.288 194.496,1.155 195.348,0.805 195.698 C 0.391 196.112,0.322 198.109,0.322 209.662 C 0.322 221.215,0.391 223.211,0.805 223.625 C 1.149 223.970,1.288 224.809,1.288 226.547 C 1.288 228.500,1.384 228.986,1.771 228.986 C 2.151 228.986,2.254 229.433,2.254 231.079 C 2.254 232.260,2.395 233.172,2.576 233.172 C 2.758 233.172,2.899 234.085,2.899 235.266 C 2.899 236.912,3.002 237.359,3.382 237.359 C 3.739 237.359,3.865 237.733,3.865 238.789 C 3.865 239.576,4.010 240.309,4.187 240.419 C 4.364 240.528,4.509 241.193,4.509 241.897 C 4.509 242.737,4.675 243.240,4.992 243.362 C 5.291 243.477,5.475 243.967,5.475 244.650 C 5.475 245.333,5.659 245.823,5.958 245.938 C 6.256 246.053,6.441 246.542,6.441 247.216 C 6.441 247.817,6.586 248.309,6.763 248.309 C 6.940 248.309,7.085 248.734,7.085 249.252 C 7.085 249.771,7.303 250.413,7.568 250.679 C 7.834 250.944,8.052 251.462,8.052 251.829 C 8.052 252.196,8.196 252.496,8.374 252.496 C 8.551 252.496,8.697 252.750,8.698 253.060 C 8.699 253.370,8.916 254.038,9.181 254.546 C 9.445 255.053,9.662 255.741,9.662 256.075 C 9.662 256.409,9.879 256.683,10.145 256.683 C 10.467 256.683,10.628 257.005,10.628 257.649 C 10.628 258.180,10.773 258.615,10.950 258.615 C 11.127 258.615,11.272 258.910,11.272 259.269 C 11.272 259.629,11.490 260.007,11.755 260.109 C 12.021 260.211,12.238 260.641,12.238 261.065 C 12.238 261.489,12.383 261.836,12.560 261.836 C 12.738 261.836,12.882 262.043,12.882 262.296 C 12.882 262.549,13.081 262.954,13.323 263.197 C 13.565 263.439,13.865 263.956,13.989 264.347 C 14.113 264.737,14.349 265.056,14.514 265.056 C 14.680 265.056,14.815 265.274,14.815 265.539 C 14.815 265.805,14.960 266.023,15.137 266.023 C 15.314 266.023,15.459 266.369,15.459 266.793 C 15.459 267.217,15.676 267.647,15.942 267.749 C 16.208 267.851,16.425 268.164,16.425 268.443 C 16.425 268.723,16.787 269.288,17.230 269.698 C 17.673 270.108,18.035 270.688,18.035 270.986 C 18.035 271.284,18.398 271.864,18.841 272.275 C 19.283 272.685,19.646 273.262,19.646 273.558 C 19.646 273.853,19.863 274.178,20.129 274.280 C 20.395 274.382,20.612 274.667,20.612 274.914 C 20.612 275.160,20.829 275.362,21.095 275.362 C 21.361 275.362,21.578 275.551,21.578 275.781 C 21.578 276.475,22.359 277.934,22.731 277.936 C 22.923 277.938,23.273 278.301,23.510 278.744 C 23.747 279.187,24.134 279.549,24.370 279.549 C 24.613 279.549,24.799 279.899,24.799 280.354 C 24.799 280.855,24.981 281.159,25.282 281.159 C 25.548 281.159,25.765 281.314,25.765 281.502 C 25.765 281.691,26.562 282.643,27.536 283.617 C 28.510 284.591,29.308 285.521,29.308 285.682 C 29.308 286.293,36.689 293.452,37.073 293.214 C 37.317 293.064,37.374 293.113,37.229 293.348 C 37.102 293.552,37.130 293.720,37.291 293.720 C 37.734 293.720,38.969 294.873,38.969 295.287 C 38.969 295.488,39.187 295.652,39.452 295.652 C 39.718 295.652,39.936 295.797,39.936 295.974 C 39.936 296.151,40.153 296.296,40.419 296.296 C 40.684 296.296,40.902 296.491,40.902 296.729 C 40.902 296.966,41.409 297.434,42.029 297.768 C 42.649 298.102,43.156 298.487,43.156 298.624 C 43.156 298.761,43.374 298.873,43.639 298.873 C 43.905 298.873,44.122 299.090,44.122 299.356 C 44.122 300.055,45.705 299.985,45.937 299.275 C 46.038 298.965,57.249 287.625,70.852 274.074 C 95.860 249.160,96.702 248.248,95.191 247.673 C 94.736 247.500,94.364 247.210,94.364 247.029 C 94.364 246.847,94.002 246.699,93.559 246.699 C 93.116 246.699,92.754 246.554,92.754 246.377 C 92.754 246.200,92.536 246.055,92.271 246.055 C 92.005 246.055,91.787 245.913,91.787 245.739 C 91.787 245.565,91.453 245.339,91.044 245.236 C 90.635 245.134,90.035 244.696,89.711 244.264 C 89.386 243.832,88.917 243.478,88.667 243.478 C 88.418 243.478,87.878 243.116,87.468 242.673 C 87.057 242.230,86.557 241.868,86.356 241.868 C 86.155 241.868,85.990 241.713,85.990 241.523 C 85.990 241.077,85.171 240.258,84.725 240.258 C 84.535 240.258,84.380 240.118,84.380 239.947 C 84.380 239.526,82.553 237.681,82.136 237.681 C 81.953 237.681,81.804 237.517,81.804 237.317 C 81.804 237.116,81.291 236.469,80.666 235.879 C 80.040 235.288,79.534 234.692,79.541 234.553 C 79.548 234.413,79.336 234.044,79.069 233.732 C 78.802 233.420,78.583 233.022,78.583 232.847 C 78.583 232.671,78.366 232.528,78.100 232.528 C 77.799 232.528,77.617 232.224,77.617 231.723 C 77.617 231.280,77.472 230.918,77.295 230.918 C 77.118 230.918,76.973 230.623,76.973 230.264 C 76.973 229.904,76.755 229.526,76.490 229.424 C 76.224 229.322,76.006 229.037,76.006 228.790 C 76.006 228.543,75.868 228.341,75.699 228.341 C 75.530 228.341,75.296 227.834,75.180 227.214 C 75.064 226.594,74.840 226.087,74.682 226.087 C 74.525 226.087,74.396 225.652,74.396 225.121 C 74.396 224.477,74.235 224.155,73.913 224.155 C 73.564 224.155,73.430 223.797,73.430 222.866 C 73.430 222.158,73.285 221.578,73.108 221.578 C 72.931 221.578,72.786 221.066,72.786 220.441 C 72.786 219.727,72.606 219.234,72.303 219.118 C 71.934 218.977,71.820 218.375,71.820 216.586 C 71.820 214.797,71.705 214.196,71.337 214.054 C 70.618 213.778,70.618 205.475,71.337 205.475 C 71.722 205.475,71.820 204.996,71.820 203.094 C 71.820 201.275,71.934 200.669,72.303 200.528 C 72.644 200.397,72.786 199.865,72.786 198.722 C 72.786 197.831,72.931 197.101,73.108 197.101 C 73.285 197.101,73.435 196.775,73.440 196.377 C 73.446 195.978,73.663 195.371,73.923 195.027 C 74.183 194.683,74.396 194.067,74.396 193.658 C 74.396 193.249,74.525 192.915,74.683 192.915 C 74.841 192.915,75.061 192.552,75.173 192.110 C 75.284 191.667,75.517 191.304,75.691 191.304 C 75.864 191.304,76.006 190.958,76.006 190.534 C 76.006 190.110,76.224 189.680,76.490 189.578 C 76.755 189.476,76.973 189.113,76.973 188.772 C 76.973 188.431,77.332 187.810,77.772 187.393 C 78.212 186.976,78.574 186.446,78.577 186.217 C 78.580 185.987,78.945 185.463,79.388 185.052 C 79.831 184.642,80.193 184.142,80.193 183.941 C 80.193 183.739,80.328 183.575,80.494 183.575 C 80.659 183.575,80.895 183.256,81.019 182.865 C 81.282 182.036,81.933 181.320,82.425 181.320 C 82.614 181.320,82.770 181.103,82.770 180.837 C 82.770 180.572,82.987 180.354,83.253 180.354 C 83.519 180.354,83.736 180.199,83.736 180.009 C 83.736 179.563,84.555 178.744,85.001 178.744 C 85.191 178.744,85.346 178.589,85.346 178.399 C 85.346 177.908,86.062 177.257,86.891 176.993 C 87.281 176.870,87.601 176.633,87.601 176.468 C 87.601 176.303,87.818 176.167,88.084 176.167 C 88.349 176.167,88.567 175.950,88.567 175.684 C 88.567 175.419,88.784 175.201,89.050 175.201 C 89.316 175.201,89.533 175.056,89.533 174.879 C 89.533 174.702,89.827 174.557,90.187 174.557 C 90.547 174.557,90.925 174.340,91.027 174.074 C 91.129 173.808,91.414 173.591,91.661 173.591 C 91.908 173.591,92.110 173.462,92.110 173.304 C 92.110 173.146,92.472 172.926,92.915 172.815 C 93.357 172.703,93.720 172.470,93.720 172.297 C 93.720 172.123,94.082 171.981,94.525 171.981 C 95.026 171.981,95.330 171.798,95.330 171.498 C 95.330 171.197,95.634 171.014,96.135 171.014 C 96.578 171.014,96.940 170.870,96.940 170.692 C 96.940 170.515,97.365 170.370,97.884 170.370 C 98.402 170.370,99.044 170.153,99.310 169.887 C 99.576 169.622,100.148 169.404,100.582 169.404 C 101.015 169.404,101.551 169.187,101.771 168.921 C 102.014 168.628,102.720 168.438,103.563 168.438 C 104.328 168.438,105.044 168.293,105.153 168.116 C 105.262 167.939,106.348 167.794,107.564 167.794 C 109.102 167.794,109.924 167.646,110.260 167.311 C 110.625 166.946,111.529 166.828,113.952 166.828 C 116.508 166.828,117.199 166.926,117.347 167.311 C 117.489 167.681,118.097 167.794,119.939 167.794 C 121.262 167.794,122.435 167.939,122.544 168.116 C 122.654 168.293,123.371 168.438,124.139 168.438 C 125.083 168.438,125.595 168.595,125.720 168.921 C 125.835 169.220,126.325 169.404,127.009 169.404 C 127.692 169.404,128.182 169.588,128.297 169.887 C 128.399 170.153,128.841 170.370,129.278 170.370 C 129.716 170.370,130.164 170.515,130.274 170.692 C 130.383 170.870,130.899 171.014,131.420 171.014 C 132.047 171.014,132.367 171.178,132.367 171.498 C 132.367 171.763,132.585 171.981,132.850 171.981 C 133.116 171.981,133.333 172.110,133.333 172.268 C 133.333 172.426,133.696 172.646,134.138 172.757 C 134.581 172.868,134.944 173.101,134.944 173.275 C 134.944 173.449,135.306 173.591,135.749 173.591 C 136.250 173.591,136.554 173.773,136.554 174.074 C 136.554 174.340,136.771 174.557,137.037 174.557 C 137.303 174.557,137.520 174.702,137.520 174.879 C 137.520 175.056,137.882 175.201,138.325 175.201 C 138.826 175.201,139.130 175.384,139.130 175.684 C 139.130 175.950,139.271 176.167,139.443 176.167 C 139.879 176.167,146.538 182.787,146.538 183.221 C 146.538 183.416,146.755 183.575,147.021 183.575 C 147.287 183.575,147.504 183.792,147.504 184.058 C 147.504 184.324,147.721 184.541,147.987 184.541 C 148.288 184.541,148.470 184.845,148.470 185.346 C 148.470 185.789,148.615 186.151,148.792 186.151 C 148.969 186.151,149.114 186.369,149.114 186.634 C 149.114 186.900,149.332 187.118,149.597 187.118 C 149.898 187.118,150.081 187.422,150.081 187.923 C 150.081 188.366,150.210 188.728,150.368 188.728 C 150.526 188.728,150.746 189.090,150.857 189.533 C 150.968 189.976,151.201 190.338,151.375 190.338 C 151.549 190.338,151.693 190.592,151.696 190.902 C 151.708 192.100,153.164 193.019,154.090 192.413 C 154.542 192.117,154.911 191.746,154.911 191.589 C 154.911 191.433,155.129 191.304,155.395 191.304 C 155.660 191.304,155.878 191.111,155.878 190.876 C 155.878 190.640,156.240 190.253,156.683 190.016 C 157.126 189.779,157.488 189.392,157.488 189.157 C 157.488 188.921,157.705 188.728,157.971 188.728 C 158.237 188.728,158.454 188.573,158.454 188.383 C 158.454 187.937,159.273 187.118,159.719 187.118 C 159.909 187.118,160.064 186.900,160.064 186.634 C 160.064 186.369,160.220 186.151,160.409 186.151 C 160.855 186.151,161.675 185.332,161.675 184.886 C 161.675 184.696,161.892 184.541,162.158 184.541 C 162.424 184.541,162.641 184.386,162.641 184.196 C 162.641 183.750,163.460 182.931,163.906 182.931 C 164.096 182.931,164.251 182.713,164.251 182.448 C 164.251 182.182,164.406 181.965,164.596 181.965 C 165.042 181.965,165.862 181.145,165.862 180.699 C 165.862 180.510,166.079 180.354,166.345 180.354 C 166.610 180.354,166.828 180.199,166.828 180.009 C 166.828 179.563,167.647 178.744,168.093 178.744 C 168.283 178.744,168.438 178.527,168.438 178.261 C 168.438 177.995,168.593 177.778,168.783 177.778 C 169.229 177.778,170.048 176.958,170.048 176.513 C 170.048 176.323,170.266 176.167,170.531 176.167 C 170.797 176.167,171.014 175.975,171.014 175.739 C 171.014 175.503,171.377 175.116,171.820 174.879 C 172.262 174.642,172.625 174.255,172.625 174.020 C 172.625 173.784,172.818 173.591,173.053 173.591 C 173.289 173.591,173.676 173.229,173.913 172.786 C 174.150 172.343,174.537 171.981,174.773 171.981 C 175.008 171.981,175.201 171.763,175.201 171.498 C 175.201 171.232,175.357 171.014,175.546 171.014 C 175.736 171.014,176.098 170.807,176.352 170.554 C 176.605 170.301,176.812 169.939,176.812 169.749 C 176.812 169.559,177.029 169.404,177.295 169.404 C 177.560 169.404,177.778 169.249,177.778 169.059 C 177.778 168.869,177.985 168.507,178.238 168.254 C 178.491 168.001,178.853 167.794,179.043 167.794 C 179.233 167.794,179.388 167.576,179.388 167.311 C 179.388 167.045,179.543 166.828,179.733 166.828 C 179.923 166.828,180.285 166.621,180.538 166.368 C 180.791 166.115,180.998 165.752,180.998 165.562 C 180.998 165.373,181.216 165.217,181.481 165.217 C 181.747 165.217,181.965 165.062,181.965 164.872 C 181.965 164.426,182.784 163.607,183.230 163.607 C 183.420 163.607,183.575 163.390,183.575 163.124 C 183.575 162.858,183.730 162.641,183.920 162.641 C 184.110 162.641,184.472 162.434,184.725 162.181 C 184.978 161.928,185.185 161.565,185.185 161.376 C 185.185 161.186,185.403 161.031,185.668 161.031 C 185.934 161.031,186.151 160.838,186.151 160.602 C 186.151 160.366,186.514 159.979,186.957 159.742 C 187.399 159.505,187.762 159.119,187.762 158.883 C 187.762 158.647,187.955 158.454,188.190 158.454 C 188.426 158.454,188.813 158.092,189.050 157.649 C 189.287 157.206,189.674 156.844,189.909 156.844 C 190.145 156.844,190.338 156.626,190.338 156.361 C 190.338 156.095,190.493 155.878,190.683 155.878 C 191.129 155.878,191.948 155.058,191.948 154.612 C 191.948 154.423,192.166 154.267,192.432 154.267 C 192.697 154.267,192.915 154.112,192.915 153.922 C 192.915 153.476,193.734 152.657,194.180 152.657 C 194.370 152.657,194.525 152.440,194.525 152.174 C 194.525 151.908,194.680 151.691,194.870 151.691 C 195.316 151.691,196.135 150.871,196.135 150.426 C 196.135 150.236,196.353 150.081,196.618 150.081 C 196.884 150.081,197.101 149.925,197.101 149.735 C 197.101 149.290,197.921 148.470,198.367 148.470 C 198.556 148.470,198.712 148.253,198.712 147.987 C 198.712 147.721,198.867 147.504,199.057 147.504 C 199.503 147.504,200.322 146.685,200.322 146.239 C 200.322 146.049,200.539 145.894,200.805 145.894 C 201.071 145.894,201.288 145.738,201.288 145.549 C 201.288 145.103,202.108 144.283,202.553 144.283 C 202.743 144.283,202.899 144.066,202.899 143.800 C 202.899 143.535,203.116 143.317,203.382 143.317 C 203.647 143.317,203.865 143.100,203.865 142.834 C 203.865 142.568,204.010 142.351,204.187 142.351 C 204.364 142.351,204.509 141.989,204.509 141.546 C 204.509 141.103,204.397 140.741,204.260 140.741 C 204.123 140.741,203.738 140.233,203.404 139.614 C 203.070 138.994,202.603 138.486,202.365 138.486 C 202.127 138.486,201.932 138.269,201.932 138.003 C 201.932 137.738,201.787 137.520,201.610 137.520 C 201.433 137.520,201.288 137.303,201.288 137.037 C 201.288 136.771,201.071 136.554,200.805 136.554 C 200.539 136.554,200.322 136.371,200.322 136.148 C 200.322 135.925,199.960 135.351,199.517 134.874 C 199.074 134.396,198.712 133.854,198.712 133.669 C 198.712 133.485,198.494 133.333,198.229 133.333 C 197.963 133.333,197.746 133.178,197.746 132.988 C 197.746 132.542,196.926 131.723,196.480 131.723 C 196.291 131.723,196.135 131.573,196.135 131.390 C 196.135 130.973,194.291 129.147,193.870 129.147 C 193.699 129.147,193.559 128.991,193.559 128.801 C 193.559 128.356,192.739 127.536,192.294 127.536 C 192.104 127.536,191.942 127.355,191.933 127.134 C 191.919 126.745,188.716 123.994,188.278 123.994 C 187.947 123.994,186.151 122.081,186.151 121.728 C 186.151 121.557,185.934 121.417,185.668 121.417 C 185.403 121.417,185.185 121.272,185.185 121.095 C 185.185 120.918,184.968 120.773,184.702 120.773 C 184.436 120.773,184.219 120.631,184.219 120.457 C 184.219 120.283,183.875 120.055,183.455 119.949 C 183.035 119.844,182.520 119.437,182.310 119.046 C 181.949 118.370,181.204 117.840,179.952 117.368 C 179.642 117.251,179.388 117.027,179.388 116.871 C 179.388 116.714,179.171 116.586,178.905 116.586 C 178.639 116.586,178.422 116.369,178.422 116.103 C 178.422 115.802,178.118 115.620,177.617 115.620 C 177.116 115.620,176.812 115.437,176.812 115.137 C 176.812 114.871,176.594 114.654,176.329 114.654 C 176.063 114.654,175.845 114.509,175.845 114.332 C 175.845 114.155,175.483 114.010,175.040 114.010 C 174.539 114.010,174.235 113.827,174.235 113.527 C 174.235 113.100,173.629 112.877,172.842 113.013 C 172.696 113.039,172.669 112.911,172.781 112.729 C 172.893 112.548,172.754 112.399,172.473 112.399 C 172.191 112.399,171.877 112.182,171.775 111.916 C 171.673 111.651,171.243 111.433,170.819 111.433 C 170.349 111.433,170.048 111.245,170.048 110.950 C 170.048 110.649,169.744 110.467,169.243 110.467 C 168.800 110.467,168.438 110.322,168.438 110.145 C 168.438 109.968,168.076 109.823,167.633 109.823 C 167.132 109.823,166.828 109.640,166.828 109.340 C 166.828 109.074,166.610 108.857,166.345 108.857 C 166.079 108.857,165.862 108.712,165.862 108.535 C 165.862 108.357,165.517 108.213,165.096 108.213 C 164.675 108.213,164.150 107.995,163.929 107.729 C 163.709 107.464,163.111 107.246,162.601 107.246 C 161.992 107.246,161.675 107.081,161.675 106.763 C 161.675 106.463,161.371 106.280,160.870 106.280 C 160.427 106.280,160.064 106.135,160.064 105.958 C 160.064 105.781,159.718 105.636,159.294 105.636 C 158.870 105.636,158.440 105.419,158.338 105.153 C 158.221 104.850,157.729 104.670,157.015 104.670 C 156.389 104.670,155.878 104.553,155.878 104.410 C 155.878 104.022,153.529 103.060,152.583 103.060 C 152.130 103.060,151.676 102.842,151.574 102.576 C 151.458 102.273,150.966 102.093,150.252 102.093 C 149.626 102.093,149.114 101.948,149.114 101.771 C 149.114 101.594,148.535 101.449,147.826 101.449 C 146.896 101.449,146.538 101.315,146.538 100.966 C 146.538 100.603,146.148 100.483,144.962 100.483 C 143.858 100.483,143.331 100.338,143.201 100.000 C 143.070 99.659,142.538 99.517,141.395 99.517 C 140.457 99.517,139.775 99.372,139.775 99.172 C 139.775 98.946,138.798 98.856,136.957 98.911 C 135.358 98.959,132.675 98.752,130.757 98.433 C 127.526 97.895,122.236 97.451,115.620 97.160 C 113.937 97.086,110.386 97.146,107.729 97.294 " stroke="none" fill="#fbbb04" fill-rule="evenodd"></path><path id="path2" d="M303.579 39.743 C 303.468 40.188,293.234 50.676,279.423 64.500 C 266.244 77.692,255.293 88.799,255.088 89.182 C 254.644 90.011,254.927 91.143,255.577 91.143 C 255.831 91.143,256.039 91.299,256.039 91.488 C 256.039 91.934,256.858 92.754,257.304 92.754 C 257.494 92.754,257.649 92.910,257.649 93.100 C 257.649 93.551,259.428 95.330,259.879 95.330 C 260.069 95.330,260.225 95.485,260.225 95.675 C 260.225 96.121,261.045 96.940,261.491 96.940 C 261.680 96.940,261.836 97.096,261.836 97.287 C 261.836 97.738,263.615 99.517,264.065 99.517 C 264.256 99.517,264.412 99.681,264.412 99.881 C 264.412 100.082,264.883 100.705,265.459 101.266 C 266.608 102.386,267.229 103.242,267.519 104.106 C 267.623 104.416,267.908 104.670,268.154 104.670 C 268.399 104.670,268.599 104.821,268.599 105.006 C 268.599 105.191,268.961 105.733,269.404 106.210 C 269.847 106.688,270.209 107.196,270.209 107.339 C 270.209 107.482,270.572 107.935,271.014 108.345 C 271.457 108.756,271.820 109.401,271.820 109.779 C 271.820 110.176,272.024 110.467,272.303 110.467 C 272.568 110.467,272.786 110.684,272.786 110.950 C 272.786 111.216,272.931 111.433,273.108 111.433 C 273.285 111.433,273.430 111.795,273.430 112.238 C 273.430 112.739,273.612 113.043,273.913 113.043 C 274.214 113.043,274.396 113.348,274.396 113.849 C 274.396 114.350,274.579 114.654,274.879 114.654 C 275.180 114.654,275.362 114.958,275.362 115.459 C 275.362 115.902,275.507 116.264,275.684 116.264 C 275.862 116.264,276.006 116.466,276.006 116.713 C 276.006 116.959,276.224 117.245,276.490 117.347 C 276.755 117.449,276.973 117.827,276.973 118.186 C 276.973 118.546,277.118 118.841,277.295 118.841 C 277.472 118.841,277.617 119.175,277.617 119.584 C 277.617 119.993,277.830 120.609,278.090 120.953 C 278.350 121.297,278.567 121.904,278.573 122.303 C 278.579 122.728,278.783 123.027,279.066 123.027 C 279.388 123.027,279.549 123.349,279.549 123.994 C 279.549 124.525,279.694 124.960,279.871 124.960 C 280.048 124.960,280.193 125.399,280.193 125.936 C 280.193 126.507,280.394 126.989,280.676 127.098 C 280.952 127.203,281.159 127.684,281.159 128.215 C 281.159 128.727,281.304 129.147,281.481 129.147 C 281.659 129.147,281.804 129.636,281.804 130.234 C 281.804 130.833,282.021 131.503,282.287 131.723 C 282.581 131.968,282.770 132.674,282.770 133.534 C 282.770 134.572,282.897 134.944,283.253 134.944 C 283.618 134.944,283.736 135.337,283.736 136.554 C 283.736 137.440,283.881 138.164,284.058 138.164 C 284.237 138.164,284.380 139.026,284.380 140.107 C 284.380 141.536,284.508 142.098,284.863 142.235 C 285.241 142.380,285.346 143.028,285.346 145.220 C 285.346 146.759,285.485 148.158,285.655 148.328 C 285.831 148.504,286.003 152.356,286.057 157.329 L 286.151 166.023 286.957 166.130 C 287.399 166.190,287.899 166.371,288.068 166.533 C 288.236 166.695,289.923 166.828,291.817 166.828 C 294.581 166.828,295.298 166.923,295.447 167.311 C 295.577 167.652,296.109 167.794,297.252 167.794 C 298.144 167.794,298.873 167.939,298.873 168.116 C 298.873 168.293,299.365 168.438,299.966 168.438 C 300.640 168.438,301.129 168.623,301.244 168.921 C 301.346 169.187,301.734 169.404,302.106 169.404 C 302.479 169.404,303.001 169.622,303.267 169.887 C 303.532 170.153,304.021 170.370,304.352 170.370 C 304.683 170.370,305.044 170.515,305.153 170.692 C 305.262 170.870,305.670 171.017,306.058 171.020 C 306.446 171.023,307.106 171.387,307.525 171.828 C 307.943 172.270,308.632 172.718,309.054 172.824 C 309.477 172.930,309.823 173.146,309.823 173.304 C 309.823 173.462,309.978 173.591,310.168 173.591 C 310.358 173.591,310.715 173.772,310.962 173.994 C 312.028 174.949,312.392 175.201,312.708 175.201 C 312.892 175.201,313.043 175.419,313.043 175.684 C 313.043 175.950,313.195 176.167,313.380 176.167 C 313.564 176.167,314.106 176.530,314.584 176.973 C 315.062 177.415,315.569 177.778,315.713 177.778 C 315.856 177.778,316.309 178.140,316.719 178.583 C 317.129 179.026,317.630 179.388,317.831 179.388 C 318.032 179.388,318.196 179.643,318.196 179.955 C 318.196 180.267,318.559 180.913,319.002 181.390 C 319.444 181.868,319.807 182.348,319.807 182.457 C 319.807 182.784,320.702 183.575,321.072 183.575 C 321.262 183.575,321.417 183.777,321.417 184.024 C 321.417 184.270,321.634 184.556,321.900 184.658 C 322.166 184.759,322.383 185.137,322.383 185.497 C 322.383 185.857,322.512 186.151,322.670 186.151 C 322.828 186.151,323.048 186.514,323.160 186.957 C 323.271 187.399,323.504 187.762,323.678 187.762 C 323.851 187.762,323.994 187.979,323.994 188.245 C 323.994 188.510,324.123 188.728,324.281 188.728 C 324.439 188.728,324.659 189.090,324.770 189.533 C 324.881 189.976,325.114 190.338,325.288 190.338 C 325.462 190.338,325.604 190.705,325.604 191.153 C 325.604 191.602,325.821 192.052,326.087 192.154 C 326.385 192.268,326.570 192.758,326.570 193.432 C 326.570 194.033,326.715 194.525,326.892 194.525 C 327.069 194.525,327.214 194.949,327.214 195.468 C 327.214 195.987,327.432 196.629,327.697 196.894 C 327.970 197.167,328.180 197.954,328.180 198.699 C 328.180 199.576,328.343 200.082,328.663 200.206 C 329.028 200.346,329.147 200.935,329.147 202.611 C 329.147 203.876,329.285 204.831,329.469 204.831 C 329.667 204.831,329.791 206.441,329.791 209.018 C 329.791 211.594,329.667 213.205,329.469 213.205 C 329.281 213.205,329.147 214.278,329.147 215.781 C 329.147 217.857,329.053 218.357,328.663 218.357 C 328.305 218.357,328.180 218.734,328.180 219.817 C 328.180 220.817,328.028 221.335,327.697 221.462 C 327.432 221.564,327.214 221.985,327.214 222.399 C 327.214 222.812,327.069 223.240,326.892 223.349 C 326.715 223.459,326.570 224.047,326.570 224.657 C 326.570 225.427,326.423 225.765,326.087 225.765 C 325.786 225.765,325.604 226.069,325.604 226.570 C 325.604 227.013,325.470 227.375,325.307 227.375 C 325.144 227.375,324.915 227.810,324.799 228.341 C 324.682 228.873,324.453 229.308,324.290 229.308 C 324.127 229.308,323.994 229.670,323.994 230.113 C 323.994 230.556,323.828 230.918,323.626 230.918 C 323.085 230.918,322.405 231.939,322.393 232.770 C 322.388 233.168,322.221 233.494,322.023 233.494 C 321.488 233.494,319.818 235.501,319.812 236.151 C 319.809 236.461,319.589 236.715,319.324 236.715 C 319.058 236.715,318.841 236.870,318.841 237.060 C 318.841 237.506,318.021 238.325,317.575 238.325 C 317.386 238.325,317.230 238.543,317.230 238.808 C 317.230 239.074,317.075 239.291,316.885 239.291 C 316.439 239.291,315.620 240.111,315.620 240.557 C 315.620 240.746,315.403 240.902,315.137 240.902 C 314.871 240.902,314.654 241.119,314.654 241.385 C 314.654 241.651,314.390 241.868,314.068 241.868 C 313.397 241.868,311.433 243.509,311.433 244.071 C 311.433 244.276,311.071 244.444,310.628 244.444 C 310.185 244.444,309.823 244.589,309.823 244.767 C 309.823 244.944,309.605 245.089,309.340 245.089 C 309.074 245.089,308.857 245.306,308.857 245.572 C 308.857 245.872,308.553 246.055,308.052 246.055 C 307.609 246.055,307.246 246.200,307.246 246.377 C 307.246 246.554,306.884 246.699,306.441 246.699 C 305.940 246.699,305.636 246.881,305.636 247.182 C 305.636 247.504,305.314 247.665,304.670 247.665 C 304.026 247.665,303.704 247.826,303.704 248.148 C 303.704 248.486,303.364 248.631,302.576 248.631 C 301.957 248.631,301.449 248.776,301.449 248.953 C 301.449 249.130,301.030 249.275,300.518 249.275 C 299.986 249.275,299.506 249.483,299.400 249.758 C 299.273 250.090,298.756 250.242,297.756 250.242 C 296.953 250.242,296.296 250.386,296.296 250.564 C 296.296 250.747,295.338 250.886,294.065 250.886 C 292.511 250.886,291.687 251.032,291.350 251.369 C 290.926 251.794,285.408 251.852,245.595 251.852 L 200.322 251.852 200.322 286.957 L 200.322 322.061 250.322 322.029 C 300.969 321.996,306.599 321.911,306.844 321.176 C 306.933 320.909,307.680 320.773,309.055 320.773 C 310.603 320.773,311.178 320.650,311.317 320.290 C 311.447 319.952,311.974 319.807,313.078 319.807 C 313.945 319.807,314.654 319.662,314.654 319.485 C 314.654 319.308,315.363 319.163,316.230 319.163 C 317.333 319.163,317.861 319.018,317.991 318.680 C 318.113 318.362,318.615 318.196,319.456 318.196 C 320.159 318.196,320.825 318.052,320.934 317.874 C 321.043 317.697,321.549 317.552,322.057 317.552 C 322.565 317.552,323.199 317.335,323.464 317.069 C 323.730 316.804,324.302 316.586,324.736 316.586 C 325.170 316.586,325.705 316.369,325.926 316.103 C 326.146 315.837,326.744 315.620,327.254 315.620 C 327.763 315.620,328.180 315.475,328.180 315.298 C 328.180 315.121,328.620 314.976,329.157 314.976 C 329.727 314.976,330.210 314.775,330.318 314.493 C 330.424 314.217,330.904 314.010,331.435 314.010 C 331.948 314.010,332.367 313.865,332.367 313.688 C 332.367 313.510,332.662 313.366,333.021 313.366 C 333.381 313.366,333.759 313.148,333.861 312.882 C 333.963 312.617,334.383 312.399,334.794 312.399 C 335.205 312.399,335.759 312.182,336.025 311.916 C 336.291 311.651,336.738 311.433,337.018 311.433 C 337.655 311.433,338.884 310.761,339.227 310.225 C 339.369 310.004,339.767 309.823,340.113 309.823 C 340.458 309.823,340.741 309.694,340.741 309.536 C 340.741 309.378,341.103 309.158,341.546 309.046 C 341.989 308.935,342.351 308.702,342.351 308.528 C 342.351 308.355,342.713 308.213,343.156 308.213 C 343.657 308.213,343.961 308.030,343.961 307.729 C 343.961 307.429,344.266 307.246,344.767 307.246 C 345.209 307.246,345.572 307.101,345.572 306.924 C 345.572 306.747,345.789 306.602,346.055 306.602 C 346.320 306.602,346.538 306.385,346.538 306.119 C 346.538 305.819,346.842 305.636,347.343 305.636 C 347.786 305.636,348.149 305.455,348.151 305.233 C 348.153 304.818,349.566 304.026,350.306 304.026 C 350.536 304.026,350.725 303.808,350.725 303.543 C 350.725 303.277,350.942 303.060,351.208 303.060 C 351.473 303.060,351.691 302.915,351.691 302.738 C 351.691 302.560,351.985 302.415,352.345 302.415 C 352.705 302.415,353.083 302.198,353.185 301.932 C 353.287 301.667,353.572 301.449,353.819 301.449 C 354.065 301.449,354.267 301.232,354.267 300.966 C 354.267 300.700,354.545 300.483,354.884 300.483 C 355.223 300.483,356.264 299.758,357.197 298.873 C 358.131 297.987,359.049 297.260,359.238 297.257 C 359.427 297.254,359.923 296.892,360.340 296.452 C 360.757 296.012,361.228 295.652,361.386 295.652 C 361.545 295.652,361.675 295.435,361.675 295.169 C 361.675 294.903,361.892 294.686,362.158 294.686 C 362.424 294.686,362.641 294.531,362.641 294.341 C 362.641 293.895,363.460 293.076,363.906 293.076 C 364.096 293.076,364.251 292.858,364.251 292.593 C 364.251 292.327,364.406 292.110,364.596 292.110 C 365.042 292.110,365.862 291.290,365.862 290.844 C 365.862 290.654,366.001 290.499,366.172 290.499 C 366.593 290.499,368.438 288.672,368.438 288.256 C 368.438 288.073,368.593 287.923,368.783 287.923 C 369.229 287.923,370.048 287.103,370.048 286.657 C 370.048 286.468,370.266 286.312,370.531 286.312 C 370.797 286.312,371.014 286.095,371.014 285.829 C 371.014 285.564,371.170 285.346,371.360 285.346 C 371.805 285.346,372.625 284.527,372.625 284.081 C 372.625 283.891,372.842 283.736,373.108 283.736 C 373.374 283.736,373.591 283.606,373.591 283.448 C 373.591 283.289,373.951 282.818,374.391 282.401 C 374.830 281.984,375.193 281.496,375.196 281.317 C 375.199 281.138,375.564 280.601,376.006 280.123 C 376.449 279.646,376.812 279.104,376.812 278.919 C 376.812 278.734,376.977 278.583,377.179 278.583 C 377.674 278.583,378.399 277.588,378.412 276.892 C 378.417 276.582,378.639 276.329,378.905 276.329 C 379.171 276.329,379.388 276.127,379.388 275.880 C 379.388 275.633,379.605 275.348,379.871 275.246 C 380.137 275.144,380.354 274.766,380.354 274.406 C 380.354 274.046,380.499 273.752,380.676 273.752 C 380.853 273.752,380.998 273.535,380.998 273.269 C 380.998 273.003,381.216 272.786,381.481 272.786 C 381.747 272.786,381.965 272.597,381.965 272.367 C 381.965 271.628,382.757 270.214,383.172 270.212 C 383.394 270.210,383.575 269.847,383.575 269.404 C 383.575 268.903,383.757 268.599,384.058 268.599 C 384.324 268.599,384.541 268.382,384.541 268.116 C 384.541 267.850,384.686 267.633,384.863 267.633 C 385.040 267.633,385.185 267.271,385.185 266.828 C 385.185 266.327,385.368 266.023,385.668 266.023 C 385.963 266.023,386.151 265.722,386.151 265.252 C 386.151 264.828,386.369 264.398,386.634 264.296 C 386.900 264.194,387.118 263.816,387.118 263.456 C 387.118 263.096,387.262 262.802,387.440 262.802 C 387.617 262.802,387.762 262.528,387.762 262.192 C 387.762 261.857,387.979 261.499,388.245 261.397 C 388.510 261.295,388.728 260.917,388.728 260.558 C 388.728 260.198,388.873 259.903,389.050 259.903 C 389.227 259.903,389.372 259.603,389.372 259.236 C 389.372 258.869,389.589 258.352,389.855 258.086 C 390.121 257.820,390.338 257.266,390.338 256.855 C 390.338 256.444,390.556 256.024,390.821 255.922 C 391.087 255.820,391.304 255.442,391.304 255.083 C 391.304 254.723,391.449 254.428,391.626 254.428 C 391.804 254.428,391.948 254.009,391.948 253.497 C 391.948 252.966,392.156 252.485,392.432 252.380 C 392.714 252.271,392.915 251.789,392.915 251.218 C 392.915 250.681,393.060 250.242,393.237 250.242 C 393.414 250.242,393.559 249.825,393.559 249.315 C 393.559 248.805,393.776 248.208,394.042 247.987 C 394.308 247.767,394.525 247.231,394.525 246.797 C 394.525 246.364,394.742 245.791,395.008 245.526 C 395.274 245.260,395.491 244.618,395.491 244.099 C 395.491 243.581,395.636 243.156,395.813 243.156 C 395.990 243.156,396.135 242.432,396.135 241.546 C 396.135 240.329,396.253 239.936,396.618 239.936 C 396.983 239.936,397.101 239.542,397.101 238.325 C 397.101 237.440,397.246 236.715,397.424 236.715 C 397.601 236.715,397.746 235.918,397.746 234.944 C 397.746 233.584,397.858 233.172,398.229 233.172 C 398.605 233.172,398.712 232.740,398.712 231.217 C 398.712 229.976,398.875 229.098,399.160 228.813 C 400.261 227.712,400.353 190.259,399.257 189.645 C 398.834 189.409,398.712 188.882,398.712 187.302 C 398.712 185.883,398.565 185.142,398.229 184.863 C 397.920 184.607,397.746 183.895,397.746 182.891 C 397.746 182.027,397.601 181.320,397.424 181.320 C 397.246 181.320,397.101 180.611,397.101 179.745 C 397.101 178.641,396.957 178.113,396.618 177.983 C 396.317 177.868,396.135 177.377,396.135 176.680 C 396.135 176.065,395.990 175.472,395.813 175.362 C 395.636 175.253,395.491 174.665,395.491 174.055 C 395.491 173.285,395.344 172.947,395.008 172.947 C 394.659 172.947,394.525 172.589,394.525 171.659 C 394.525 170.728,394.391 170.370,394.042 170.370 C 393.693 170.370,393.559 170.013,393.559 169.082 C 393.559 168.374,393.414 167.794,393.237 167.794 C 393.060 167.794,392.915 167.432,392.915 166.989 C 392.915 166.488,392.732 166.184,392.432 166.184 C 392.083 166.184,391.948 165.826,391.948 164.895 C 391.948 164.187,391.804 163.607,391.626 163.607 C 391.449 163.607,391.304 163.313,391.304 162.953 C 391.304 162.593,391.087 162.215,390.821 162.113 C 390.556 162.011,390.338 161.577,390.338 161.147 C 390.338 160.718,390.121 160.283,389.855 160.181 C 389.589 160.079,389.372 159.649,389.372 159.225 C 389.372 158.801,389.227 158.454,389.050 158.454 C 388.873 158.454,388.728 158.092,388.728 157.649 C 388.728 157.148,388.545 156.844,388.245 156.844 C 387.944 156.844,387.762 156.540,387.762 156.039 C 387.762 155.596,387.617 155.233,387.440 155.233 C 387.262 155.233,387.118 154.939,387.118 154.579 C 387.118 154.219,386.900 153.842,386.634 153.740 C 386.369 153.638,386.151 153.273,386.151 152.929 C 386.151 152.585,385.789 151.968,385.346 151.558 C 384.903 151.148,384.541 150.518,384.541 150.159 C 384.541 149.799,384.324 149.422,384.058 149.320 C 383.792 149.218,383.575 148.860,383.575 148.525 C 383.575 148.190,383.213 147.644,382.770 147.312 C 382.326 146.979,381.965 146.380,381.965 145.978 C 381.965 145.545,381.769 145.250,381.481 145.250 C 381.216 145.250,380.998 145.032,380.998 144.767 C 380.998 144.501,380.869 144.283,380.711 144.283 C 380.553 144.283,380.333 143.921,380.222 143.478 C 380.111 143.035,379.878 142.673,379.704 142.673 C 379.530 142.673,379.388 142.456,379.388 142.190 C 379.388 141.924,379.171 141.707,378.905 141.707 C 378.639 141.707,378.422 141.490,378.422 141.224 C 378.422 140.958,378.277 140.741,378.100 140.741 C 377.923 140.741,377.778 140.471,377.778 140.142 C 377.778 139.812,377.415 139.271,376.973 138.938 C 376.530 138.606,376.167 138.150,376.167 137.927 C 376.167 137.703,375.950 137.520,375.684 137.520 C 375.419 137.520,375.201 137.303,375.201 137.037 C 375.201 136.771,374.984 136.554,374.718 136.554 C 374.452 136.554,374.230 136.300,374.225 135.990 C 374.212 135.294,373.487 134.300,372.992 134.300 C 372.790 134.300,372.625 134.143,372.625 133.953 C 372.625 133.502,370.846 131.723,370.395 131.723 C 370.204 131.723,370.048 131.569,370.048 131.380 C 370.048 130.933,366.652 127.536,366.205 127.536 C 366.016 127.536,365.862 127.380,365.862 127.189 C 365.862 126.739,364.083 124.960,363.632 124.960 C 363.441 124.960,363.285 124.804,363.285 124.615 C 363.285 124.169,362.466 123.349,362.020 123.349 C 361.830 123.349,361.675 123.132,361.675 122.866 C 361.675 122.601,361.457 122.383,361.192 122.383 C 360.926 122.383,360.709 122.248,360.709 122.083 C 360.709 121.918,360.389 121.681,359.999 121.557 C 359.170 121.294,358.454 120.643,358.454 120.152 C 358.454 119.962,358.303 119.807,358.118 119.807 C 357.933 119.807,357.391 119.444,356.914 119.002 C 356.436 118.559,355.790 118.196,355.478 118.196 C 355.167 118.196,354.911 118.041,354.911 117.851 C 354.911 117.352,354.069 116.586,353.520 116.586 C 353.260 116.586,352.965 116.369,352.863 116.103 C 352.761 115.837,352.455 115.620,352.184 115.620 C 351.823 115.620,351.691 115.274,351.691 114.332 C 351.691 113.401,351.557 113.043,351.208 113.043 C 350.851 113.043,350.725 112.670,350.725 111.613 C 350.725 110.827,350.580 110.093,350.403 109.984 C 350.225 109.874,350.081 109.459,350.081 109.060 C 350.081 108.662,349.868 108.054,349.608 107.711 C 349.348 107.367,349.130 106.614,349.125 106.039 C 349.119 105.463,348.969 104.992,348.792 104.992 C 348.615 104.992,348.470 104.712,348.470 104.371 C 348.470 104.029,348.253 103.532,347.987 103.267 C 347.721 103.001,347.504 102.334,347.504 101.784 C 347.504 101.193,347.307 100.709,347.021 100.600 C 346.755 100.498,346.538 100.067,346.538 99.643 C 346.538 99.220,346.393 98.873,346.216 98.873 C 346.039 98.873,345.894 98.361,345.894 97.735 C 345.894 97.022,345.714 96.529,345.411 96.413 C 345.145 96.311,344.928 95.896,344.928 95.491 C 344.928 95.086,344.710 94.671,344.444 94.570 C 344.141 94.453,343.961 93.961,343.961 93.247 C 343.961 92.621,343.816 92.110,343.639 92.110 C 343.462 92.110,343.317 91.815,343.317 91.455 C 343.317 91.095,343.100 90.718,342.834 90.616 C 342.568 90.514,342.351 90.083,342.351 89.660 C 342.351 89.236,342.206 88.889,342.029 88.889 C 341.852 88.889,341.707 88.609,341.707 88.268 C 341.707 87.926,341.490 87.429,341.224 87.164 C 340.958 86.898,340.741 86.380,340.741 86.013 C 340.741 85.635,340.532 85.346,340.258 85.346 C 339.957 85.346,339.775 85.042,339.775 84.541 C 339.775 84.098,339.630 83.736,339.452 83.736 C 339.275 83.736,339.130 83.374,339.130 82.931 C 339.130 82.430,338.948 82.126,338.647 82.126 C 338.382 82.126,338.164 81.937,338.164 81.707 C 338.164 80.967,337.372 79.554,336.957 79.552 C 336.735 79.550,336.554 79.187,336.554 78.744 C 336.554 78.243,336.371 77.939,336.071 77.939 C 335.795 77.939,335.588 77.649,335.588 77.264 C 335.588 76.893,335.262 76.134,334.863 75.578 C 334.465 75.021,333.969 74.244,333.761 73.849 C 332.775 71.973,332.194 71.176,331.815 71.176 C 331.587 71.176,331.401 70.813,331.401 70.370 C 331.401 69.928,331.256 69.565,331.079 69.565 C 330.902 69.565,330.757 69.348,330.757 69.082 C 330.757 68.816,330.539 68.599,330.274 68.599 C 330.003 68.599,329.791 68.312,329.791 67.945 C 329.791 67.585,329.573 67.207,329.308 67.105 C 329.042 67.003,328.824 66.718,328.824 66.471 C 328.824 66.224,328.695 66.023,328.537 66.023 C 328.379 66.023,328.159 65.660,328.048 65.217 C 327.937 64.775,327.704 64.412,327.530 64.412 C 327.356 64.412,327.214 64.257,327.214 64.067 C 327.214 63.621,326.395 62.802,325.949 62.802 C 325.759 62.802,325.604 62.600,325.604 62.353 C 325.604 62.107,325.386 61.821,325.121 61.719 C 324.855 61.617,324.638 61.239,324.638 60.880 C 324.638 60.520,324.493 60.225,324.316 60.225 C 324.138 60.225,323.994 60.008,323.994 59.742 C 323.994 59.477,323.799 59.259,323.561 59.259 C 323.323 59.259,322.856 58.752,322.522 58.132 C 322.188 57.512,321.803 57.005,321.666 57.005 C 321.529 57.005,321.417 56.787,321.417 56.522 C 321.417 56.256,321.200 56.039,320.934 56.039 C 320.668 56.039,320.451 55.883,320.451 55.694 C 320.451 55.504,319.509 54.411,318.357 53.265 C 317.206 52.120,316.264 51.023,316.264 50.829 C 316.264 50.635,315.902 50.141,315.459 49.730 C 315.016 49.320,314.654 48.832,314.654 48.647 C 314.654 48.461,314.499 48.309,314.309 48.309 C 313.863 48.309,313.043 47.490,313.043 47.044 C 313.043 46.854,312.826 46.699,312.560 46.699 C 312.295 46.699,312.077 46.544,312.077 46.354 C 312.077 45.908,311.258 45.089,310.812 45.089 C 310.622 45.089,310.467 44.871,310.467 44.605 C 310.467 44.340,310.312 44.122,310.122 44.122 C 309.676 44.122,308.857 43.303,308.857 42.857 C 308.857 42.667,308.709 42.512,308.529 42.512 C 308.349 42.512,307.733 42.038,307.160 41.458 C 304.724 38.990,303.871 38.582,303.579 39.743 " stroke="none" fill="#4484f4" fill-rule="evenodd"></path><path id="path3" d="M184.497 0.576 C 185.032 0.754,184.945 1.288,184.380 1.288 C 184.114 1.288,183.895 1.107,183.892 0.886 C 183.888 0.589,183.824 0.582,183.649 0.857 C 183.505 1.083,182.232 1.274,180.433 1.339 C 178.320 1.416,177.456 1.565,177.456 1.851 C 177.456 2.136,176.788 2.254,175.178 2.254 C 173.680 2.254,172.750 2.405,172.460 2.695 C 172.178 2.978,171.495 3.097,170.563 3.028 C 169.752 2.967,169.013 3.072,168.894 3.265 C 168.749 3.499,168.589 3.469,168.403 3.174 C 168.187 2.834,168.125 2.862,168.121 3.301 C 168.115 3.934,167.153 4.092,167.145 3.462 C 167.141 3.161,167.072 3.167,166.868 3.489 C 166.706 3.744,166.000 3.918,165.125 3.918 C 164.254 3.918,163.593 4.081,163.502 4.317 C 163.404 4.574,162.801 4.687,161.804 4.634 C 160.769 4.580,160.413 4.650,160.725 4.848 C 160.982 5.010,161.119 5.156,161.031 5.173 C 160.942 5.189,160.580 5.260,160.225 5.331 C 159.871 5.402,159.183 5.494,158.696 5.536 C 158.209 5.578,157.810 5.799,157.810 6.027 C 157.810 6.302,157.333 6.441,156.388 6.441 C 155.551 6.441,154.898 6.607,154.803 6.844 C 154.679 7.151,154.634 7.145,154.615 6.821 C 154.595 6.491,154.481 6.503,154.107 6.878 C 153.820 7.165,153.232 7.311,152.657 7.238 C 151.971 7.151,151.691 7.251,151.691 7.584 C 151.691 7.983,150.679 8.241,149.690 8.094 C 149.563 8.075,149.547 8.287,149.653 8.565 C 149.817 8.992,149.618 9.045,148.358 8.906 C 146.952 8.751,146.058 9.093,146.938 9.448 C 147.161 9.538,146.872 9.622,146.296 9.636 C 145.592 9.654,145.250 9.820,145.250 10.145 C 145.250 10.435,144.928 10.644,144.444 10.668 C 143.404 10.720,143.281 10.750,142.512 11.132 C 142.158 11.309,141.474 11.434,140.993 11.411 C 140.512 11.387,140.196 11.494,140.291 11.648 C 140.386 11.801,140.598 11.843,140.763 11.741 C 140.928 11.640,141.063 11.708,141.063 11.893 C 141.063 12.079,140.809 12.209,140.499 12.183 C 139.159 12.071,138.486 12.263,138.486 12.756 C 138.486 13.138,138.289 13.225,137.733 13.085 C 137.299 12.976,136.720 13.093,136.364 13.362 C 136.026 13.618,135.480 13.833,135.151 13.838 C 134.756 13.845,134.615 14.011,134.737 14.328 C 134.838 14.591,134.817 14.778,134.691 14.743 C 134.158 14.594,132.339 15.153,132.501 15.415 C 132.598 15.573,132.252 15.665,131.731 15.621 C 131.168 15.573,130.811 15.687,130.851 15.902 C 130.888 16.101,130.508 16.311,130.007 16.368 C 129.374 16.441,129.150 16.613,129.272 16.932 C 129.389 17.237,129.228 17.391,128.791 17.391 C 128.430 17.391,127.909 17.617,127.633 17.893 C 127.357 18.169,126.942 18.322,126.710 18.233 C 126.479 18.144,126.244 18.175,126.188 18.301 C 125.919 18.911,124.209 19.910,123.626 19.798 C 123.116 19.700,123.015 19.795,123.178 20.222 C 123.337 20.639,123.297 20.683,123.013 20.402 C 122.596 19.987,121.311 20.824,121.614 21.313 C 121.762 21.553,121.016 21.725,120.343 21.607 C 120.196 21.581,119.780 21.934,119.421 22.391 C 119.061 22.848,118.688 23.143,118.592 23.047 C 118.496 22.951,118.222 23.033,117.985 23.231 C 117.747 23.428,117.552 23.480,117.552 23.345 C 117.552 23.211,117.252 23.483,116.885 23.950 C 116.518 24.417,115.947 24.799,115.616 24.799 C 115.285 24.799,114.910 24.966,114.784 25.171 C 114.632 25.417,114.697 25.454,114.976 25.282 C 115.255 25.109,115.320 25.147,115.168 25.393 C 115.041 25.598,114.674 25.765,114.352 25.765 C 114.030 25.765,113.587 25.981,113.368 26.244 C 113.150 26.508,112.842 26.645,112.685 26.547 C 112.179 26.235,111.635 26.777,112.123 27.107 C 112.480 27.348,112.471 27.393,112.077 27.350 C 110.870 27.222,110.402 27.386,110.590 27.875 C 110.695 28.150,110.649 28.293,110.486 28.192 C 110.324 28.092,110.101 28.295,109.991 28.642 C 109.764 29.355,108.748 29.791,108.135 29.438 C 107.912 29.309,107.826 29.312,107.944 29.444 C 108.238 29.772,106.977 30.989,106.591 30.750 C 106.420 30.644,106.280 30.784,106.280 31.060 C 106.280 31.552,105.920 31.700,105.029 31.576 C 104.769 31.540,104.654 31.700,104.754 31.960 C 104.853 32.220,104.535 32.668,103.993 33.031 C 103.481 33.374,103.061 33.764,103.061 33.897 C 103.060 34.030,102.842 34.138,102.576 34.138 C 102.311 34.138,102.093 34.366,102.093 34.643 C 102.093 35.012,101.899 35.093,101.369 34.944 C 100.801 34.785,100.749 34.814,101.127 35.079 C 101.393 35.265,101.502 35.437,101.369 35.462 C 101.236 35.487,100.982 35.543,100.805 35.588 C 100.628 35.632,100.229 35.689,99.919 35.713 C 99.592 35.740,99.493 35.858,99.682 35.995 C 99.883 36.141,99.729 36.505,99.280 36.945 C 98.879 37.337,98.546 37.555,98.540 37.428 C 98.535 37.302,98.350 37.435,98.130 37.724 C 97.910 38.013,97.443 38.305,97.093 38.372 C 96.729 38.441,96.413 38.801,96.354 39.214 C 96.298 39.611,96.108 39.936,95.933 39.936 C 95.758 39.936,95.704 39.791,95.813 39.614 C 95.923 39.436,95.871 39.291,95.698 39.291 C 95.525 39.291,95.199 39.711,94.972 40.223 C 94.703 40.830,94.395 41.092,94.087 40.974 C 93.795 40.862,93.698 40.928,93.834 41.148 C 93.958 41.349,93.639 41.747,93.099 42.067 C 92.574 42.377,92.218 42.749,92.307 42.893 C 92.396 43.038,92.338 43.156,92.178 43.156 C 91.778 43.156,90.499 44.292,90.499 44.646 C 90.499 44.804,90.204 45.118,89.843 45.344 C 89.481 45.569,89.266 45.884,89.364 46.042 C 89.462 46.201,89.250 46.423,88.892 46.537 C 88.535 46.650,88.031 47.132,87.773 47.607 C 87.515 48.082,87.299 48.268,87.291 48.021 C 87.278 47.539,86.025 48.753,85.136 50.110 C 84.857 50.537,84.412 50.886,84.148 50.886 C 83.853 50.886,83.739 51.072,83.852 51.369 C 83.954 51.634,83.897 51.852,83.726 51.852 C 83.554 51.852,83.412 52.105,83.409 52.415 C 83.406 52.797,83.325 52.855,83.159 52.593 C 82.997 52.339,82.752 52.310,82.439 52.508 C 82.023 52.771,82.024 52.810,82.448 52.826 C 82.715 52.836,82.535 53.059,82.045 53.324 C 81.100 53.837,80.840 54.209,81.643 53.901 C 82.504 53.570,82.153 54.273,81.164 54.857 C 80.636 55.169,80.234 55.527,80.271 55.651 C 80.308 55.776,79.943 56.297,79.461 56.810 C 78.978 57.323,78.583 57.939,78.583 58.179 C 78.583 58.419,78.311 58.615,77.978 58.615 C 77.333 58.615,76.532 59.355,76.842 59.665 C 77.086 59.909,75.241 61.836,74.764 61.836 C 74.562 61.836,74.396 62.134,74.396 62.499 C 74.396 62.918,74.259 63.077,74.024 62.932 C 73.820 62.806,73.730 62.833,73.825 62.994 C 74.057 63.384,73.501 64.816,73.191 64.628 C 73.057 64.546,72.760 64.682,72.532 64.929 C 72.303 65.177,72.264 65.378,72.444 65.378 C 72.656 65.378,72.642 65.663,72.405 66.184 C 72.203 66.626,71.908 66.989,71.749 66.989 C 71.590 66.989,71.564 66.808,71.691 66.586 C 71.826 66.352,71.800 66.296,71.630 66.452 C 71.468 66.600,71.318 66.853,71.296 67.016 C 71.274 67.178,71.238 67.451,71.216 67.623 C 71.194 67.794,70.973 67.857,70.725 67.762 C 70.475 67.666,70.282 67.778,70.292 68.013 C 70.346 69.236,70.187 69.626,69.710 69.442 C 69.395 69.322,69.291 69.382,69.429 69.605 C 69.549 69.800,69.448 70.083,69.204 70.234 C 68.960 70.384,68.760 70.694,68.760 70.922 C 68.760 71.150,68.556 71.337,68.308 71.337 C 68.059 71.337,67.814 71.616,67.764 71.957 C 67.714 72.298,67.440 72.707,67.156 72.866 C 66.838 73.044,66.711 73.385,66.827 73.749 C 66.930 74.075,66.842 74.449,66.630 74.580 C 66.371 74.740,66.330 74.680,66.506 74.396 C 66.678 74.117,66.640 74.052,66.394 74.204 C 66.190 74.331,66.023 74.711,66.023 75.049 C 66.023 75.464,65.865 75.604,65.539 75.479 C 65.229 75.360,65.056 75.485,65.056 75.830 C 65.056 76.130,65.209 76.272,65.402 76.153 C 65.593 76.035,65.564 76.233,65.338 76.596 C 65.112 76.957,64.845 77.202,64.745 77.140 C 64.645 77.078,64.397 77.378,64.196 77.806 C 63.919 78.393,63.920 78.538,64.201 78.398 C 64.406 78.296,64.292 78.441,63.948 78.720 C 63.604 78.999,63.455 79.227,63.617 79.227 C 63.779 79.227,63.598 79.447,63.215 79.715 C 62.800 80.005,62.567 80.454,62.638 80.823 C 62.722 81.256,62.618 81.391,62.297 81.267 C 61.974 81.144,61.824 81.343,61.795 81.930 C 61.735 83.193,61.700 83.337,61.382 83.629 C 61.213 83.783,61.181 83.735,61.306 83.517 C 61.426 83.307,61.407 83.064,61.264 82.975 C 61.120 82.887,60.980 83.117,60.953 83.488 C 60.925 83.858,60.786 84.247,60.644 84.351 C 60.502 84.456,60.372 84.722,60.354 84.944 C 60.337 85.165,60.300 85.564,60.274 85.829 C 60.247 86.095,60.002 86.312,59.728 86.312 C 59.455 86.312,59.255 86.494,59.283 86.715 C 59.415 87.731,59.236 88.216,58.792 88.045 C 58.432 87.907,58.363 88.073,58.489 88.770 C 58.587 89.310,58.484 89.809,58.232 90.007 C 57.809 90.340,56.767 92.058,56.712 92.512 C 56.696 92.645,56.683 92.907,56.683 93.095 C 56.683 93.282,56.534 93.344,56.353 93.232 C 56.171 93.120,56.043 93.147,56.069 93.293 C 56.252 94.346,55.979 95.652,55.577 95.652 C 55.313 95.652,55.072 96.031,55.013 96.538 C 54.954 97.056,54.738 97.388,54.494 97.338 C 54.264 97.291,54.100 97.436,54.129 97.660 C 54.240 98.507,54.097 99.227,53.847 99.073 C 53.705 98.985,53.570 99.375,53.547 99.940 C 53.509 100.881,52.424 103.447,52.131 103.289 C 52.062 103.251,52.224 103.421,52.492 103.667 C 52.923 104.061,52.916 104.091,52.432 103.924 C 51.785 103.702,51.433 104.527,51.654 105.747 C 51.765 106.356,51.686 106.518,51.344 106.387 C 50.940 106.232,50.669 107.431,50.844 108.604 C 50.863 108.730,50.672 108.755,50.421 108.658 C 50.063 108.521,49.985 108.773,50.059 109.818 C 50.117 110.631,49.982 111.324,49.715 111.592 C 49.473 111.834,49.275 112.469,49.275 113.004 C 49.275 113.590,49.051 114.110,48.712 114.310 C 48.220 114.600,48.210 114.683,48.631 114.965 C 48.923 115.160,48.962 115.290,48.732 115.293 C 48.521 115.296,48.371 115.588,48.398 115.942 C 48.445 116.576,49.275 116.886,49.275 116.270 C 49.275 116.096,49.638 115.863,50.081 115.752 C 50.523 115.641,50.886 115.438,50.886 115.301 C 50.886 115.163,51.139 114.966,51.449 114.862 C 52.053 114.659,53.198 113.973,53.462 113.655 C 53.690 113.381,56.274 111.897,57.871 111.123 C 58.613 110.763,59.310 110.323,59.420 110.146 C 59.530 109.968,59.901 109.823,60.244 109.823 C 60.588 109.823,60.870 109.706,60.870 109.563 C 60.870 109.330,62.328 108.614,63.849 108.101 C 64.159 107.996,64.412 107.761,64.412 107.579 C 64.412 107.396,64.775 107.246,65.217 107.246 C 65.660 107.246,66.023 107.113,66.023 106.950 C 66.023 106.787,66.457 106.558,66.989 106.441 C 67.520 106.325,67.955 106.096,67.955 105.933 C 67.955 105.769,68.255 105.636,68.622 105.636 C 68.989 105.636,69.507 105.419,69.772 105.153 C 70.038 104.887,70.599 104.670,71.018 104.670 C 71.438 104.670,71.871 104.525,71.981 104.348 C 72.090 104.171,72.471 104.026,72.828 104.026 C 73.184 104.026,73.693 103.808,73.959 103.543 C 74.225 103.277,74.867 103.060,75.385 103.060 C 75.904 103.060,76.329 102.916,76.329 102.741 C 76.329 102.566,76.908 102.330,77.617 102.217 C 78.325 102.104,78.905 101.885,78.905 101.730 C 78.905 101.576,79.423 101.449,80.055 101.449 C 80.688 101.449,81.423 101.232,81.689 100.966 C 81.954 100.700,82.741 100.483,83.437 100.483 C 84.133 100.483,84.702 100.338,84.702 100.161 C 84.702 99.984,85.318 99.834,86.071 99.829 C 86.824 99.823,87.721 99.606,88.065 99.346 C 88.409 99.086,89.358 98.873,90.174 98.873 C 90.991 98.873,91.819 98.712,92.015 98.516 C 92.212 98.320,93.331 98.082,94.504 97.988 C 95.676 97.894,96.713 97.692,96.807 97.540 C 96.901 97.387,98.463 97.262,100.277 97.262 C 102.486 97.262,103.708 97.130,103.977 96.860 C 104.280 96.557,106.638 96.457,113.526 96.457 C 120.414 96.457,122.772 96.557,123.076 96.860 C 123.345 97.130,124.567 97.262,126.776 97.262 C 128.591 97.262,130.152 97.388,130.247 97.542 C 130.342 97.695,131.525 97.892,132.876 97.979 C 134.226 98.065,135.425 98.285,135.540 98.466 C 135.762 98.818,137.510 98.931,137.469 98.591 C 137.400 98.030,137.554 97.783,137.767 98.113 C 137.938 98.378,138.118 98.356,138.418 98.032 C 138.760 97.664,138.743 97.585,138.319 97.585 C 138.036 97.585,137.900 97.430,138.017 97.241 C 138.134 97.051,138.432 96.974,138.680 97.069 C 138.928 97.164,139.130 97.093,139.130 96.911 C 139.130 96.729,139.274 96.669,139.449 96.777 C 139.624 96.885,139.691 96.776,139.598 96.534 C 139.414 96.054,140.873 94.281,141.190 94.599 C 141.297 94.706,141.389 94.588,141.395 94.337 C 141.401 94.086,141.760 93.623,142.194 93.307 C 142.835 92.840,142.948 92.825,142.794 93.226 C 142.689 93.498,142.696 93.720,142.808 93.720 C 142.920 93.720,143.154 93.343,143.329 92.883 C 143.504 92.424,143.934 91.972,144.284 91.881 C 144.634 91.789,144.841 91.586,144.744 91.429 C 144.647 91.272,144.793 91.143,145.070 91.143 C 145.346 91.143,145.572 90.998,145.572 90.821 C 145.572 90.644,145.789 90.499,146.055 90.499 C 146.320 90.499,146.538 90.314,146.538 90.088 C 146.538 89.861,146.828 89.428,147.182 89.125 C 147.536 88.821,147.826 88.662,147.826 88.770 C 147.826 88.879,148.043 88.787,148.309 88.567 C 148.575 88.346,148.792 88.264,148.792 88.384 C 148.792 88.504,149.173 88.196,149.638 87.699 C 150.103 87.202,150.286 87.085,150.046 87.440 C 149.614 88.075,149.618 88.076,150.320 87.477 C 150.711 87.143,150.955 86.747,150.861 86.595 C 150.768 86.444,150.901 86.400,151.158 86.499 C 151.415 86.598,151.721 86.524,151.838 86.334 C 151.955 86.145,152.332 85.990,152.676 85.990 C 153.020 85.990,153.301 85.845,153.301 85.668 C 153.301 85.491,153.519 85.346,153.784 85.346 C 154.050 85.346,154.237 85.238,154.199 85.105 C 154.091 84.723,154.901 83.414,155.245 83.414 C 155.416 83.414,155.556 83.631,155.556 83.897 C 155.556 84.297,155.657 84.283,156.149 83.816 C 156.475 83.506,156.715 83.180,156.683 83.092 C 156.547 82.721,157.703 81.967,158.356 82.000 C 158.745 82.020,159.139 81.839,159.232 81.598 C 159.324 81.357,159.694 81.159,160.054 81.159 C 160.432 81.159,160.709 80.947,160.709 80.657 C 160.709 80.381,160.856 80.246,161.036 80.358 C 161.216 80.469,161.266 80.717,161.147 80.909 C 161.017 81.120,161.081 81.166,161.308 81.026 C 161.516 80.898,161.618 80.685,161.536 80.552 C 161.455 80.420,161.815 80.059,162.336 79.751 C 162.858 79.443,163.285 79.294,163.285 79.420 C 163.285 79.546,163.557 79.403,163.889 79.103 C 164.221 78.802,164.619 78.579,164.775 78.608 C 165.766 78.789,166.879 78.538,166.736 78.166 C 166.630 77.888,166.909 77.723,167.574 77.672 C 168.122 77.631,168.831 77.361,169.149 77.074 C 169.466 76.786,169.726 76.656,169.726 76.785 C 169.726 76.913,169.954 76.791,170.232 76.513 C 170.678 76.067,171.999 75.829,173.183 75.981 C 173.402 76.009,173.504 75.831,173.409 75.585 C 173.278 75.244,173.547 75.153,174.553 75.201 C 175.387 75.241,175.959 75.102,176.116 74.822 C 176.251 74.580,176.905 74.361,177.567 74.336 C 178.287 74.309,178.718 74.150,178.638 73.941 C 178.557 73.728,179.083 73.553,179.981 73.493 C 180.793 73.439,181.672 73.222,181.934 73.010 C 182.308 72.708,182.358 72.711,182.168 73.027 C 182.035 73.249,182.068 73.430,182.241 73.430 C 182.414 73.430,182.608 73.270,182.674 73.074 C 182.744 72.864,183.738 72.698,185.090 72.671 C 186.353 72.645,187.503 72.507,187.645 72.366 C 187.787 72.224,187.654 72.203,187.349 72.320 C 187.031 72.442,186.795 72.381,186.795 72.176 C 186.795 71.942,187.790 71.820,189.694 71.820 C 191.796 71.820,192.594 71.709,192.598 71.417 C 192.601 71.122,192.677 71.132,192.881 71.454 C 193.115 71.824,193.186 71.824,193.333 71.454 C 193.457 71.142,193.515 71.131,193.533 71.417 C 193.547 71.638,193.699 71.820,193.871 71.820 C 194.042 71.820,194.099 71.602,193.997 71.337 C 193.895 71.071,193.962 70.853,194.145 70.853 C 194.328 70.853,194.544 71.107,194.625 71.417 C 194.730 71.820,194.783 71.843,194.809 71.498 C 194.854 70.922,201.800 70.915,202.375 71.490 C 202.863 71.978,203.359 71.891,202.943 71.390 C 202.673 71.065,202.703 70.961,203.065 70.961 C 203.328 70.961,203.543 71.154,203.543 71.390 C 203.543 71.924,203.935 71.942,204.444 71.433 C 204.676 71.201,204.831 71.180,204.831 71.380 C 204.831 71.784,206.745 71.774,207.377 71.367 C 207.689 71.166,207.758 71.191,207.599 71.448 C 207.403 71.766,210.454 72.006,213.433 71.908 C 213.648 71.901,213.793 72.056,213.755 72.252 C 213.717 72.453,214.230 72.642,214.928 72.685 C 215.611 72.727,216.346 72.909,216.563 73.088 C 216.831 73.311,217.075 73.295,217.335 73.036 C 217.613 72.757,217.713 72.754,217.713 73.026 C 217.713 73.237,218.366 73.437,219.243 73.493 C 220.127 73.550,220.746 73.740,220.709 73.943 C 220.674 74.139,221.031 74.265,221.514 74.229 C 221.992 74.192,222.727 74.375,223.148 74.635 C 223.568 74.894,223.814 74.949,223.694 74.755 C 223.559 74.535,223.664 74.475,223.977 74.595 C 224.252 74.701,224.477 74.925,224.477 75.095 C 224.477 75.265,224.975 75.323,225.592 75.225 C 226.504 75.080,226.673 75.138,226.519 75.540 C 226.415 75.811,226.456 76.010,226.611 75.981 C 227.689 75.785,228.986 76.062,228.986 76.490 C 228.986 76.755,229.139 76.973,229.327 76.973 C 229.514 76.973,229.578 76.827,229.468 76.650 C 229.359 76.473,229.812 76.648,230.476 77.040 C 231.140 77.432,231.581 77.587,231.456 77.384 C 231.242 77.038,233.146 77.833,233.494 78.236 C 233.583 78.338,233.873 78.470,234.138 78.528 C 234.404 78.587,234.737 78.841,234.879 79.092 C 235.021 79.343,235.483 79.549,235.907 79.549 C 236.330 79.549,236.767 79.694,236.876 79.871 C 236.985 80.048,237.424 80.193,237.851 80.193 C 238.442 80.193,238.585 80.328,238.452 80.757 C 238.294 81.266,238.313 81.264,238.650 80.738 C 239.008 80.179,239.044 80.180,239.560 80.768 C 239.855 81.105,240.278 81.319,240.499 81.243 C 240.747 81.159,240.832 81.290,240.719 81.584 C 240.595 81.906,240.726 82.046,241.121 82.013 C 241.443 81.986,241.671 82.146,241.626 82.367 C 241.501 82.992,242.124 82.841,242.290 82.206 C 242.430 81.669,242.439 81.669,242.475 82.206 C 242.495 82.516,242.721 82.770,242.976 82.770 C 243.231 82.770,243.544 82.937,243.670 83.142 C 243.825 83.392,243.752 83.427,243.448 83.251 C 243.180 83.096,243.105 83.108,243.263 83.282 C 243.411 83.443,243.918 83.596,244.391 83.621 C 245.583 83.685,245.629 83.709,245.138 84.020 C 244.822 84.221,244.947 84.355,245.605 84.521 C 246.321 84.700,246.409 84.811,246.038 85.064 C 245.669 85.315,245.706 85.357,246.216 85.265 C 246.605 85.196,247.210 85.506,247.746 86.050 C 248.233 86.546,248.631 86.821,248.631 86.662 C 248.631 86.503,248.981 86.538,249.409 86.740 C 249.837 86.942,250.116 87.220,250.031 87.359 C 249.945 87.498,249.718 87.514,249.525 87.395 C 249.328 87.273,249.268 87.328,249.387 87.521 C 249.503 87.709,249.888 87.786,250.242 87.694 C 250.689 87.577,250.886 87.684,250.886 88.046 C 250.886 88.333,251.038 88.567,251.223 88.567 C 251.409 88.567,251.934 88.965,252.391 89.452 C 252.847 89.940,253.060 90.109,252.863 89.828 C 252.586 89.432,252.612 89.318,252.984 89.318 C 253.247 89.318,253.462 89.579,253.462 89.899 C 253.462 90.758,254.278 90.302,254.352 89.401 C 254.397 88.864,261.555 81.496,278.770 64.269 C 298.363 44.662,303.091 39.770,302.955 39.247 C 302.829 38.767,302.910 38.645,303.261 38.779 C 303.529 38.882,303.651 38.823,303.540 38.644 C 303.432 38.469,303.128 38.325,302.864 38.325 C 302.600 38.325,302.049 37.963,301.639 37.520 C 301.228 37.077,300.723 36.715,300.517 36.715 C 300.310 36.715,300.067 36.522,299.976 36.287 C 299.886 36.051,299.324 35.667,298.727 35.433 C 298.115 35.192,297.708 34.836,297.793 34.615 C 297.875 34.400,297.630 34.141,297.248 34.041 C 296.866 33.942,296.648 33.707,296.764 33.520 C 296.892 33.312,296.777 33.255,296.470 33.373 C 296.105 33.513,296.021 33.424,296.166 33.047 C 296.358 32.547,295.876 32.360,294.767 32.504 C 294.545 32.533,294.364 32.397,294.364 32.201 C 294.364 32.006,294.499 31.929,294.664 32.031 C 294.829 32.133,295.068 32.047,295.197 31.840 C 295.331 31.622,295.291 31.548,295.101 31.666 C 294.920 31.777,294.513 31.582,294.196 31.232 C 293.879 30.882,293.487 30.596,293.325 30.596 C 293.162 30.596,292.818 30.385,292.560 30.126 C 292.302 29.868,291.878 29.739,291.617 29.839 C 291.140 30.022,290.934 29.478,291.385 29.226 C 291.518 29.152,291.446 29.135,291.226 29.188 C 291.006 29.242,290.546 28.985,290.204 28.618 C 289.862 28.251,289.425 28.048,289.233 28.167 C 289.041 28.285,288.798 28.156,288.692 27.881 C 288.586 27.605,288.345 27.474,288.156 27.591 C 287.940 27.725,287.891 27.601,288.024 27.255 C 288.233 26.709,287.898 26.443,286.798 26.281 C 286.328 26.213,285.020 25.300,283.937 24.286 C 283.730 24.092,283.300 23.973,282.980 24.020 C 282.591 24.077,282.456 23.953,282.574 23.647 C 282.702 23.313,282.485 23.188,281.774 23.188 C 281.196 23.188,280.882 23.055,281.002 22.861 C 281.113 22.681,281.375 22.632,281.584 22.752 C 281.793 22.872,281.852 22.846,281.715 22.695 C 281.577 22.544,281.154 22.373,280.774 22.315 C 280.394 22.257,279.926 22.081,279.735 21.924 C 279.544 21.768,279.098 21.589,278.744 21.528 C 278.390 21.467,277.953 21.131,277.773 20.782 C 277.593 20.432,276.916 19.998,276.269 19.816 C 275.622 19.634,274.984 19.376,274.852 19.243 C 274.719 19.110,274.345 19.002,274.020 19.002 C 273.696 19.002,273.430 18.846,273.430 18.657 C 273.430 18.000,272.506 17.391,271.510 17.391 C 270.919 17.391,270.435 17.194,270.326 16.908 C 270.224 16.643,269.939 16.425,269.692 16.425 C 269.445 16.425,269.243 16.211,269.243 15.950 C 269.243 15.600,269.003 15.523,268.330 15.658 C 267.725 15.779,267.243 15.667,266.903 15.328 C 266.621 15.046,266.036 14.815,265.602 14.815 C 265.168 14.815,264.633 14.597,264.412 14.332 C 264.192 14.066,263.812 13.849,263.568 13.849 C 263.324 13.849,263.124 13.631,263.124 13.366 C 263.124 13.097,262.838 12.882,262.480 12.882 C 262.126 12.882,261.834 12.701,261.831 12.480 C 261.828 12.211,261.722 12.238,261.514 12.560 C 261.306 12.882,261.200 12.909,261.197 12.641 C 261.194 12.413,260.789 12.238,260.265 12.238 C 259.755 12.238,259.152 12.014,258.925 11.741 C 258.698 11.467,258.322 11.316,258.089 11.405 C 257.856 11.494,257.553 11.368,257.416 11.123 C 257.278 10.879,256.659 10.632,256.039 10.573 C 255.289 10.503,254.943 10.319,255.005 10.025 C 255.064 9.747,254.918 9.652,254.612 9.770 C 254.344 9.872,253.903 9.735,253.633 9.464 C 253.362 9.193,253.140 9.127,253.140 9.317 C 253.140 9.507,253.000 9.662,252.828 9.662 C 252.657 9.662,252.600 9.443,252.703 9.176 C 252.853 8.784,252.667 8.719,251.743 8.837 C 250.835 8.953,250.634 8.886,250.777 8.515 C 250.898 8.200,250.760 8.064,250.357 8.100 C 248.989 8.222,248.309 8.033,248.309 7.529 C 248.309 7.079,248.234 7.068,247.764 7.448 C 247.394 7.749,247.297 7.761,247.461 7.488 C 247.639 7.192,247.356 7.085,246.396 7.085 C 245.677 7.085,245.089 6.940,245.089 6.763 C 245.089 6.586,244.436 6.441,243.639 6.441 C 242.547 6.441,242.190 6.319,242.190 5.944 C 242.190 5.671,242.009 5.470,241.787 5.499 C 240.722 5.637,239.595 5.444,239.775 5.153 C 239.987 4.809,239.792 4.760,237.964 4.697 C 237.322 4.674,236.577 4.473,236.307 4.249 C 236.037 4.025,235.693 3.864,235.541 3.892 C 234.299 4.114,231.884 3.806,231.884 3.425 C 231.884 3.162,231.528 2.982,230.998 2.977 C 228.373 2.951,227.676 2.872,227.833 2.617 C 227.929 2.462,226.972 2.314,225.708 2.288 C 223.104 2.235,221.655 1.961,222.200 1.624 C 222.399 1.501,221.240 1.373,219.626 1.339 C 217.526 1.295,216.554 1.141,216.213 0.800 C 215.644 0.231,215.254 0.193,214.955 0.679 C 214.800 0.929,214.658 0.911,214.476 0.617 C 214.275 0.291,213.965 0.277,213.067 0.553 C 212.434 0.747,211.916 0.798,211.916 0.667 C 211.916 0.535,205.665 0.434,198.024 0.441 C 190.383 0.448,184.296 0.509,184.497 0.576 " stroke="none" fill="#ec4434" fill-rule="evenodd"></path><path id="path4" d="M196.864 0.553 C 197.354 0.627,198.079 0.625,198.475 0.549 C 198.871 0.472,198.470 0.412,197.585 0.414 C 196.699 0.417,196.375 0.479,196.864 0.553 M201.208 0.549 C 201.606 0.626,202.258 0.626,202.657 0.549 C 203.056 0.473,202.729 0.410,201.932 0.410 C 201.135 0.410,200.809 0.473,201.208 0.549 M183.897 0.966 C 183.897 1.143,184.114 1.288,184.380 1.288 C 184.646 1.288,184.863 1.143,184.863 0.966 C 184.863 0.789,184.646 0.644,184.380 0.644 C 184.114 0.644,183.897 0.789,183.897 0.966 M167.552 3.112 C 166.992 3.338,167.048 3.865,167.633 3.865 C 167.899 3.865,168.116 3.647,168.116 3.382 C 168.116 3.116,168.080 2.910,168.035 2.924 C 167.991 2.938,167.774 3.023,167.552 3.112 M157.488 5.816 C 157.488 6.004,157.343 6.068,157.166 5.958 C 156.989 5.849,156.844 5.913,156.844 6.100 C 156.844 6.288,157.061 6.441,157.327 6.441 C 157.593 6.441,157.810 6.224,157.810 5.958 C 157.810 5.692,157.738 5.475,157.649 5.475 C 157.560 5.475,157.488 5.629,157.488 5.816 M148.846 8.588 C 148.521 8.936,148.563 9.018,149.067 9.018 C 149.409 9.018,149.764 8.824,149.854 8.588 C 149.945 8.352,149.845 8.159,149.633 8.159 C 149.421 8.159,149.067 8.352,148.846 8.588 M144.489 10.145 C 144.376 10.439,144.488 10.628,144.777 10.628 C 145.037 10.628,145.250 10.411,145.250 10.145 C 145.250 9.879,145.120 9.662,144.962 9.662 C 144.804 9.662,144.591 9.879,144.489 10.145 M263.124 13.527 C 263.124 13.704,263.324 13.849,263.568 13.849 C 263.812 13.849,264.192 14.066,264.412 14.332 C 264.633 14.597,265.049 14.798,265.337 14.777 C 265.736 14.749,265.715 14.703,265.251 14.584 C 264.761 14.458,264.729 14.372,265.090 14.143 C 265.430 13.928,265.367 13.857,264.834 13.854 C 264.446 13.851,264.039 13.704,263.929 13.527 C 263.820 13.349,263.594 13.205,263.427 13.205 C 263.260 13.205,263.124 13.349,263.124 13.527 M266.667 15.066 C 266.667 15.486,268.189 15.976,268.507 15.659 C 268.617 15.549,268.421 15.459,268.073 15.459 C 267.725 15.459,267.266 15.285,267.053 15.072 C 266.759 14.779,266.667 14.777,266.667 15.066 M273.430 18.519 C 273.430 18.784,273.665 19.002,273.952 19.002 C 274.380 19.002,274.402 18.914,274.074 18.519 C 273.854 18.253,273.618 18.035,273.552 18.035 C 273.485 18.035,273.430 18.253,273.430 18.519 M118.565 22.509 C 118.299 22.677,118.253 22.863,118.448 22.984 C 118.624 23.092,118.947 22.966,119.166 22.702 C 119.600 22.178,119.259 22.069,118.565 22.509 M108.535 29.308 C 108.105 29.585,108.105 29.620,108.535 29.620 C 108.800 29.620,109.235 29.479,109.501 29.308 C 109.930 29.030,109.930 28.995,109.501 28.995 C 109.235 28.995,108.800 29.136,108.535 29.308 M294.515 31.900 C 294.209 32.395,294.628 32.715,295.041 32.302 C 295.273 32.070,295.278 31.890,295.058 31.754 C 294.878 31.643,294.634 31.708,294.515 31.900 M101.449 34.783 C 101.449 34.960,101.223 35.105,100.947 35.105 C 100.671 35.105,100.533 35.247,100.640 35.420 C 100.763 35.619,101.068 35.590,101.464 35.343 C 102.138 34.922,102.299 34.461,101.771 34.461 C 101.594 34.461,101.449 34.605,101.449 34.783 M297.804 34.670 C 297.689 34.786,297.971 35.076,298.431 35.315 C 299.599 35.920,299.754 35.857,298.947 35.105 C 298.185 34.394,298.109 34.366,297.804 34.670 M302.961 39.272 C 303.089 39.761,297.849 45.176,278.795 64.244 C 263.672 79.378,254.427 88.861,254.366 89.304 C 254.312 89.696,254.122 90.123,253.945 90.253 C 253.760 90.388,253.849 90.491,254.152 90.494 C 254.452 90.497,254.770 90.144,254.887 89.677 C 255.015 89.167,264.148 79.792,278.947 64.979 C 303.355 40.549,303.909 39.969,303.588 39.133 C 303.314 38.420,302.770 38.540,302.961 39.272 M78.466 57.467 C 77.884 58.355,77.818 58.616,78.180 58.613 C 78.450 58.610,79.285 56.955,79.106 56.777 C 79.044 56.714,78.755 57.024,78.466 57.467 M71.973 66.047 C 71.663 67.025,71.976 67.125,72.405 66.185 C 72.607 65.741,72.640 65.378,72.479 65.378 C 72.317 65.378,72.090 65.679,71.973 66.047 M69.439 69.431 C 69.136 70.219,69.202 70.297,69.726 69.772 C 70.274 69.225,70.344 68.921,69.922 68.921 C 69.764 68.921,69.546 69.150,69.439 69.431 M186.676 72.310 C 186.523 72.710,186.605 72.738,187.125 72.460 C 187.871 72.060,187.942 71.820,187.313 71.820 C 187.066 71.820,186.780 72.040,186.676 72.310 M212.432 72.270 C 212.623 72.771,213.741 72.846,213.741 72.359 C 213.741 72.151,213.414 71.960,213.014 71.936 C 212.574 71.909,212.344 72.041,212.432 72.270 M163.929 79.066 C 163.494 79.590,163.598 79.656,164.386 79.354 C 164.666 79.246,164.895 79.029,164.895 78.871 C 164.895 78.425,164.373 78.531,163.929 79.066 M162.461 79.690 C 161.842 80.148,161.842 80.152,162.462 80.064 C 162.807 80.016,163.145 79.807,163.214 79.601 C 163.378 79.111,163.218 79.129,162.461 79.690 M238.551 80.730 C 238.642 80.966,238.996 81.159,239.339 81.159 C 239.843 81.159,239.885 81.078,239.560 80.730 C 239.339 80.494,238.985 80.301,238.773 80.301 C 238.560 80.301,238.461 80.494,238.551 80.730 M154.737 83.757 C 154.620 83.946,154.602 84.178,154.697 84.273 C 154.927 84.503,155.556 84.097,155.556 83.717 C 155.556 83.305,155.000 83.333,154.737 83.757 M248.641 86.584 C 248.661 86.990,250.267 87.968,250.655 87.810 C 250.870 87.723,250.785 87.640,250.464 87.626 C 250.144 87.612,249.950 87.490,250.034 87.354 C 250.118 87.218,249.837 86.942,249.409 86.740 C 248.981 86.538,248.636 86.468,248.641 86.584 M147.101 89.199 C 146.791 89.501,146.540 89.881,146.543 90.043 C 146.545 90.205,146.654 90.181,146.784 89.989 C 146.914 89.796,147.293 89.490,147.626 89.309 C 147.959 89.127,148.104 88.904,147.948 88.814 C 147.792 88.723,147.411 88.896,147.101 89.199 M58.019 89.425 C 57.780 89.685,57.673 89.987,57.783 90.096 C 58.052 90.366,58.717 89.670,58.571 89.271 C 58.507 89.095,58.259 89.164,58.019 89.425 M142.064 93.417 C 141.640 93.769,141.386 94.150,141.498 94.263 C 141.611 94.375,141.994 94.132,142.349 93.722 C 143.353 92.565,143.237 92.440,142.064 93.417 M140.363 95.035 C 140.066 95.348,139.650 95.940,139.437 96.352 C 139.062 97.079,139.073 97.078,139.786 96.296 C 140.190 95.853,140.723 95.324,140.972 95.119 C 141.220 94.915,141.306 94.684,141.163 94.607 C 141.019 94.529,140.659 94.722,140.363 95.035 M55.395 95.169 C 55.066 95.565,55.088 95.652,55.516 95.652 C 55.804 95.652,56.039 95.435,56.039 95.169 C 56.039 94.903,55.984 94.686,55.917 94.686 C 55.850 94.686,55.615 94.903,55.395 95.169 M104.992 96.519 C 104.549 96.604,104.049 96.806,103.881 96.968 C 103.713 97.130,102.091 97.262,100.277 97.262 C 98.463 97.262,96.901 97.387,96.807 97.540 C 96.713 97.692,95.676 97.894,94.504 97.988 C 93.331 98.082,92.212 98.320,92.015 98.516 C 91.819 98.712,90.991 98.873,90.174 98.873 C 89.358 98.873,88.409 99.086,88.065 99.346 C 87.721 99.606,86.824 99.823,86.071 99.829 C 85.318 99.834,84.702 99.984,84.702 100.161 C 84.702 100.338,84.133 100.483,83.437 100.483 C 82.741 100.483,81.954 100.700,81.689 100.966 C 81.423 101.232,80.688 101.449,80.055 101.449 C 79.423 101.449,78.905 101.576,78.905 101.730 C 78.905 101.885,78.325 102.104,77.617 102.217 C 76.908 102.330,76.329 102.566,76.329 102.741 C 76.329 102.916,75.904 103.060,75.385 103.060 C 74.867 103.060,74.225 103.277,73.959 103.543 C 73.693 103.808,73.184 104.026,72.828 104.026 C 72.471 104.026,72.090 104.171,71.981 104.348 C 71.871 104.525,71.438 104.670,71.018 104.670 C 70.599 104.670,70.038 104.887,69.772 105.153 C 69.507 105.419,68.989 105.636,68.622 105.636 C 68.255 105.636,67.955 105.769,67.955 105.933 C 67.955 106.096,67.520 106.325,66.989 106.441 C 66.457 106.558,66.023 106.787,66.023 106.950 C 66.023 107.113,65.660 107.246,65.217 107.246 C 64.775 107.246,64.412 107.396,64.412 107.579 C 64.412 107.761,64.159 107.996,63.849 108.101 C 62.328 108.614,60.870 109.330,60.870 109.563 C 60.870 109.706,60.588 109.823,60.244 109.823 C 59.901 109.823,59.530 109.968,59.420 110.146 C 59.310 110.323,58.613 110.763,57.871 111.123 C 56.274 111.897,53.690 113.381,53.462 113.655 C 53.198 113.973,52.053 114.659,51.449 114.862 C 51.139 114.966,50.886 115.163,50.886 115.301 C 50.886 115.438,50.523 115.641,50.081 115.752 C 49.638 115.863,49.275 116.096,49.275 116.270 C 49.275 116.444,49.022 116.598,48.712 116.612 C 48.402 116.626,48.317 116.706,48.524 116.791 C 48.948 116.964,51.974 115.501,54.514 113.896 C 55.441 113.310,56.417 112.732,56.683 112.611 C 56.948 112.490,57.890 111.957,58.776 111.427 C 60.244 110.549,67.539 106.921,69.082 106.303 C 69.436 106.161,70.089 105.884,70.531 105.688 C 72.900 104.640,79.482 102.297,81.481 101.790 C 82.101 101.633,83.623 101.226,84.863 100.886 C 86.933 100.318,90.046 99.609,93.720 98.869 C 103.400 96.919,120.346 96.702,130.757 98.394 C 137.021 99.412,136.460 99.377,135.797 98.714 C 135.373 98.290,134.553 98.086,132.816 97.975 C 131.498 97.890,130.342 97.695,130.247 97.542 C 130.152 97.388,128.591 97.262,126.776 97.262 C 124.567 97.262,123.346 97.130,123.076 96.860 C 122.674 96.457,106.875 96.159,104.992 96.519 M49.612 111.084 C 49.414 111.453,49.387 111.755,49.552 111.755 C 49.883 111.755,50.340 110.780,50.114 110.554 C 50.036 110.476,49.810 110.714,49.612 111.084 " stroke="none" fill="#ec4c34" fill-rule="evenodd"></path></g></svg>